<?xml version="1.0" encoding="utf-8"?>
<!-- Generator: Adobe Illustrator 15.0.0, SVG Export Plug-In . SVG Version: 6.00 Build 0)  -->
<!DOCTYPE svg PUBLIC "-//W3C//DTD SVG 1.1//EN" "http://www.w3.org/Graphics/SVG/1.1/DTD/svg11.dtd">
<svg version="1.1" id="Layer_1" xmlns="http://www.w3.org/2000/svg" xmlns:xlink="http://www.w3.org/1999/xlink" x="0px" y="0px"
	 width="791.699px" height="792px" viewBox="-89.699 0 791.699 792" enable-background="new -89.699 0 791.699 792"
	 xml:space="preserve">
<circle cx="306" cy="396" r="396"/>
<g>
	<path fill="#252F3E" d="M173.937,346.476c0,7.449,0.805,13.488,2.214,17.917c1.61,4.429,3.624,9.26,6.442,14.495
		c1.007,1.61,1.409,3.221,1.409,4.63c0,2.013-1.208,4.026-3.825,6.04l-12.683,8.455c-1.812,1.208-3.624,1.813-5.234,1.813
		c-2.013,0-4.026-1.007-6.04-2.818c-2.818-3.02-5.234-6.241-7.248-9.462c-2.013-3.422-4.026-7.248-6.241-11.878
		c-15.703,18.521-35.432,27.781-59.187,27.781c-16.91,0-30.398-4.831-40.263-14.494c-9.864-9.663-14.897-22.547-14.897-38.653
		c0-17.112,6.039-31.002,18.319-41.471c12.28-10.468,28.587-15.703,49.323-15.703c6.845,0,13.891,0.604,21.339,1.611
		c7.449,1.006,15.099,2.617,23.151,4.429v-14.696c0-15.3-3.221-25.97-9.462-32.21C124.614,246.02,113.744,243,98.242,243
		c-7.046,0-14.293,0.805-21.742,2.617c-7.449,1.812-14.696,4.026-21.742,6.845c-3.221,1.409-5.637,2.214-7.046,2.617
		c-1.409,0.402-2.416,0.604-3.221,0.604c-2.818,0-4.228-2.013-4.228-6.241v-9.864c0-3.221,0.403-5.637,1.409-7.046
		c1.007-1.409,2.818-2.819,5.637-4.228c7.046-3.624,15.501-6.643,25.366-9.059c9.865-2.617,20.333-3.825,31.405-3.825
		c23.957,0,41.471,5.436,52.745,16.307c11.072,10.871,16.709,27.379,16.709,49.523v65.226H173.937z M92.203,377.076
		c6.644,0,13.488-1.208,20.735-3.624c7.248-2.416,13.689-6.845,19.125-12.884c3.221-3.825,5.637-8.053,6.845-12.884
		c1.208-4.832,2.013-10.669,2.013-17.514v-8.456c-5.838-1.409-12.079-2.617-18.521-3.422c-6.442-0.805-12.683-1.208-18.923-1.208
		c-13.488,0-23.353,2.617-29.996,8.053c-6.644,5.436-9.865,13.085-9.865,23.151c0,9.462,2.416,16.508,7.449,21.339
		C75.896,374.661,82.942,377.076,92.203,377.076z M253.859,398.818c-3.624,0-6.04-0.604-7.65-2.013
		c-1.61-1.208-3.02-4.027-4.228-7.852l-47.309-155.617c-1.208-4.026-1.812-6.644-1.812-8.053c0-3.221,1.611-5.033,4.832-5.033
		h19.729c3.825,0,6.442,0.604,7.852,2.013c1.61,1.208,2.818,4.026,4.026,7.851l33.821,133.271l31.405-133.271
		c1.007-4.026,2.214-6.644,3.825-7.851c1.61-1.208,4.429-2.013,8.052-2.013h16.105c3.825,0,6.442,0.604,8.053,2.013
		c1.61,1.208,3.02,4.026,3.825,7.851l31.808,134.882l34.828-134.882c1.207-4.026,2.616-6.644,4.025-7.851
		c1.611-1.208,4.229-2.013,7.852-2.013h18.723c3.221,0,5.033,1.61,5.033,5.033c0,1.007-0.202,2.013-0.403,3.221
		c-0.201,1.208-0.604,2.818-1.409,5.033l-48.517,155.617c-1.208,4.026-2.617,6.644-4.228,7.852c-1.611,1.208-4.228,2.013-7.65,2.013
		h-17.313c-3.824,0-6.441-0.604-8.053-2.013c-1.61-1.41-3.02-4.026-3.824-8.053l-31.204-129.849L283.05,388.752
		c-1.006,4.026-2.214,6.644-3.825,8.053c-1.611,1.409-4.429,2.013-8.053,2.013H253.859z M512.55,404.254
		c-10.468,0-20.937-1.208-31.002-3.624c-10.066-2.415-17.918-5.033-23.151-8.052c-3.222-1.812-5.436-3.825-6.241-5.637
		c-0.806-1.812-1.208-3.825-1.208-5.637v-10.267c0-4.228,1.61-6.241,4.631-6.241c1.207,0,2.415,0.201,3.623,0.604
		s3.02,1.208,5.033,2.013c6.845,3.02,14.293,5.436,22.145,7.046c8.053,1.611,15.904,2.416,23.957,2.416
		c12.683,0,22.547-2.214,29.392-6.644c6.845-4.429,10.469-10.871,10.469-19.125c0-5.637-1.813-10.267-5.436-14.092
		c-3.624-3.825-10.469-7.248-20.333-10.469l-29.191-9.059c-14.695-4.63-25.566-11.475-32.21-20.534
		c-6.644-8.858-10.065-18.722-10.065-29.191c0-8.455,1.812-15.904,5.436-22.346c3.623-6.442,8.455-12.079,14.494-16.508
		c6.04-4.63,12.885-8.052,20.937-10.468c8.053-2.416,16.509-3.422,25.366-3.422c4.429,0,9.06,0.201,13.488,0.805
		c4.63,0.604,8.857,1.409,13.086,2.214c4.025,1.007,7.851,2.013,11.475,3.221s6.442,2.416,8.455,3.624
		c2.818,1.611,4.832,3.221,6.04,5.033c1.208,1.61,1.812,3.825,1.812,6.643v9.462c0,4.228-1.61,6.442-4.631,6.442
		c-1.61,0-4.228-0.805-7.649-2.416c-11.476-5.234-24.359-7.851-38.652-7.851c-11.476,0-20.534,1.812-26.775,5.637
		s-9.462,9.663-9.462,17.917c0,5.637,2.014,10.469,6.04,14.293c4.025,3.825,11.475,7.65,22.145,11.072l28.587,9.06
		c14.494,4.63,24.963,11.072,31.203,19.326c6.241,8.254,9.261,17.716,9.261,28.184c0,8.657-1.812,16.508-5.233,23.353
		c-3.624,6.845-8.456,12.884-14.696,17.716c-6.241,5.033-13.689,8.657-22.347,11.274
		C532.279,402.845,522.817,404.254,512.55,404.254z"/>
	<g>
		<path fill="#FF9900" d="M550.599,502.094c-66.232,48.919-162.462,74.889-245.203,74.889c-115.958,0-220.441-42.88-299.356-114.146
			c-6.241-5.637-0.604-13.287,6.845-8.858c85.358,49.524,190.646,79.521,299.558,79.521c73.479,0,154.208-15.301,228.493-46.706
			C552.008,481.761,561.47,494.041,550.599,502.094z"/>
		<path fill="#FF9900" d="M578.179,470.688c-8.455-10.871-55.966-5.234-77.506-2.617c-6.442,0.805-7.449-4.832-1.611-9.06
			c37.848-26.573,100.055-18.924,107.302-10.065c7.247,9.059-2.014,71.266-37.445,101.061c-5.436,4.63-10.669,2.214-8.254-3.825
			C568.717,526.251,586.634,481.357,578.179,470.688z"/>
	</g>
</g>
</svg>
