<?xml version="1.0" encoding="utf-8"?>
<!-- Generator: Adobe Illustrator 15.0.0, SVG Export Plug-In . SVG Version: 6.00 Build 0)  -->
<!DOCTYPE svg PUBLIC "-//W3C//DTD SVG 1.1//EN" "http://www.w3.org/Graphics/SVG/1.1/DTD/svg11.dtd">
<svg version="1.1" id="Layer_1" xmlns="http://www.w3.org/2000/svg" xmlns:xlink="http://www.w3.org/1999/xlink" x="0px" y="0px"
	 width="128px" height="128px" viewBox="0 0 128 128" enable-background="new 0 0 128 128" xml:space="preserve">
<g>
	<g>
		<path fill="#4691CE" d="M32.96,51.424v7.914c0,0.246-0.105,0.465-0.263,0.624c-0.158,0.158-0.377,0.255-0.613,0.255h-8.762
			c-0.236,0-0.456-0.097-0.613-0.255c-0.158-0.149-0.263-0.378-0.263-0.624v-7.914c0-0.247,0.105-0.467,0.263-0.625
			c0.157-0.158,0.376-0.254,0.613-0.254h8.762c0.236,0,0.456,0.096,0.613,0.254C32.855,50.949,32.96,51.177,32.96,51.424z"/>
		<path fill="#4691CE" d="M45.208,51.424v7.914c0,0.246-0.105,0.465-0.263,0.624c-0.158,0.158-0.377,0.255-0.614,0.255h-8.762
			c-0.237,0-0.456-0.097-0.613-0.255c-0.158-0.149-0.263-0.378-0.263-0.624v-7.914c0-0.247,0.105-0.467,0.263-0.625
			c0.158-0.158,0.376-0.254,0.613-0.254h8.762c0.237,0,0.456,0.096,0.614,0.254C45.102,50.949,45.208,51.177,45.208,51.424z"/>
		<path fill="#4691CE" d="M57.455,51.424v7.914c0,0.246-0.105,0.465-0.263,0.624c-0.158,0.158-0.377,0.255-0.613,0.255h-8.762
			c-0.237,0-0.456-0.097-0.614-0.255c-0.157-0.149-0.263-0.378-0.263-0.624v-7.914c0-0.247,0.105-0.467,0.263-0.625
			c0.158-0.158,0.376-0.254,0.614-0.254h8.762c0.236,0,0.455,0.096,0.613,0.254C57.35,50.949,57.455,51.177,57.455,51.424z"/>
		<path fill="#4691CE" d="M69.701,51.424v7.914c0,0.246-0.105,0.465-0.263,0.624c-0.158,0.158-0.377,0.255-0.613,0.255h-8.762
			c-0.236,0-0.456-0.097-0.613-0.255c-0.158-0.149-0.263-0.378-0.263-0.624v-7.914c0-0.247,0.105-0.467,0.263-0.625
			c0.157-0.158,0.377-0.254,0.613-0.254h8.762c0.236,0,0.455,0.096,0.613,0.254C69.596,50.949,69.701,51.177,69.701,51.424z"/>
		<path fill="#4691CE" d="M81.948,51.439v7.914c0,0.246-0.105,0.466-0.263,0.624c-0.158,0.158-0.378,0.255-0.613,0.255H72.31
			c-0.235,0-0.456-0.097-0.613-0.255c-0.157-0.149-0.263-0.378-0.263-0.624v-7.914c0-0.246,0.105-0.466,0.263-0.624
			c0.157-0.159,0.378-0.255,0.613-0.255h8.763c0.235,0,0.455,0.096,0.613,0.255C81.843,50.964,81.948,51.193,81.948,51.439z"/>
		<path fill="#4691CE" d="M45.208,40.155v7.914c0,0.246-0.105,0.465-0.263,0.624c-0.158,0.158-0.377,0.255-0.614,0.255h-8.762
			c-0.237,0-0.456-0.097-0.613-0.255c-0.158-0.149-0.263-0.378-0.263-0.624v-7.914c0-0.247,0.105-0.466,0.263-0.624
			c0.158-0.159,0.376-0.255,0.613-0.255h8.762c0.237,0,0.456,0.096,0.614,0.255C45.102,39.681,45.208,39.909,45.208,40.155z"/>
		<path fill="#4691CE" d="M57.455,40.155v7.914c0,0.246-0.105,0.465-0.263,0.624c-0.158,0.158-0.377,0.255-0.613,0.255h-8.762
			c-0.237,0-0.456-0.097-0.614-0.255c-0.157-0.149-0.263-0.378-0.263-0.624v-7.914c0-0.247,0.105-0.466,0.263-0.624
			c0.158-0.159,0.376-0.255,0.614-0.255h8.762c0.236,0,0.455,0.096,0.613,0.255C57.35,39.681,57.455,39.909,57.455,40.155z"/>
		<path fill="#4691CE" d="M69.701,40.155v7.914c0,0.246-0.105,0.465-0.263,0.624c-0.158,0.158-0.377,0.255-0.613,0.255h-8.762
			c-0.236,0-0.456-0.097-0.613-0.255c-0.158-0.149-0.263-0.378-0.263-0.624v-7.914c0-0.247,0.105-0.466,0.263-0.624
			c0.157-0.159,0.377-0.255,0.613-0.255h8.762c0.236,0,0.455,0.096,0.613,0.255C69.596,39.681,69.701,39.909,69.701,40.155z"/>
		<path fill="#4691CE" d="M69.701,40.148v7.914c0,0.246-0.105,0.465-0.263,0.624c-0.158,0.158-0.377,0.255-0.613,0.255h-8.762
			c-0.236,0-0.456-0.097-0.613-0.255c-0.158-0.149-0.263-0.378-0.263-0.624v-7.914c0-0.247,0.105-0.466,0.263-0.625
			c0.157-0.158,0.377-0.255,0.613-0.255h8.762c0.236,0,0.455,0.097,0.613,0.255C69.596,39.673,69.701,39.901,69.701,40.148z"/>
		<path fill="#4691CE" d="M69.701,28.879v7.913c0,0.247-0.105,0.466-0.263,0.624c-0.158,0.159-0.377,0.255-0.613,0.255h-8.762
			c-0.236,0-0.456-0.097-0.613-0.255c-0.158-0.149-0.263-0.377-0.263-0.624v-7.913c0-0.247,0.105-0.466,0.263-0.624
			C59.607,28.097,59.828,28,60.063,28h8.762c0.236,0,0.455,0.097,0.613,0.255C69.596,28.405,69.701,28.633,69.701,28.879z"/>
	</g>
	<path fill-rule="evenodd" clip-rule="evenodd" fill="#4691CE" d="M92.088,41.893c0.065,0,0.132,0,0.199,0
		c4.161,2.455,7.473,5.76,8.366,11.495c5.003-0.898,10.806-0.182,13.347,2.599c-0.896,3.244-2.901,5.543-5.379,7.196
		c-0.627,0.418-1.253,0.865-1.992,1.2c-0.355,0.161-0.792,0.257-1.195,0.399c-1.745,0.615-4.139,1.111-6.772,0.999
		c-0.579,1.119-1.004,2.289-1.493,3.398c-0.752,1.701-1.506,3.319-2.392,4.998c-0.138,0.263-0.255,0.547-0.398,0.8
		c-0.264,0.464-0.571,0.953-0.896,1.499c-0.091,0.152-0.105,0.252-0.199,0.399c-0.304,0.477-0.815,1.212-1.195,1.8
		c-5.058,7.814-12.11,13.756-21.415,17.491c-1.712,0.688-3.629,1.291-5.478,1.799c-2.458,0.677-5.294,1.149-8.167,1.5
		c-0.648,0.079-1.147,0.11-1.893,0.199c-6.567,0.791-14.843,0.11-20.318-1.299c-0.982-0.253-1.848-0.489-2.789-0.8
		c-0.564-0.186-1.121-0.471-1.693-0.699c-1.147-0.458-2.204-0.951-3.287-1.6c-0.112-0.067-0.274-0.119-0.398-0.2
		c-0.97-0.622-2.07-1.543-2.988-2.398c-0.413-0.386-0.918-0.784-1.294-1.2c-0.092-0.101-0.115-0.303-0.199-0.398
		c-0.242-0.278-0.625-0.551-0.896-0.9c-0.068-0.087-0.027-0.223-0.1-0.299c-0.429-0.464-1.005-1.265-1.395-1.9
		c-1.031-1.683-2.004-3.618-2.789-5.697c-0.642-1.698-1.223-3.558-1.693-5.598c-0.709-3.069-1.254-6.591-1.295-10.795
		c-0.004-0.42,0.036-0.718,0.1-1.099c0.137-0.817,0.309-1.166,0.797-1.7c0.316-0.346,0.591-0.614,1.096-0.799
		c1.062-0.388,2.868-0.2,4.582-0.2c17.465,0,34.883,0,52.291,0c6.381,0,12.626,0.548,17.33-1.699
		c-0.21-0.76-0.701-1.396-0.995-2.099c-0.852-2.033-1.306-4.883-0.897-7.696c0.354-2.429,1.313-4.72,2.391-6.597
		C91.142,43.213,91.528,42.57,92.088,41.893z"/>
</g>
</svg>
