<?xml version="1.0" encoding="utf-8"?>
<!-- Generator: Adobe Illustrator 15.0.0, SVG Export Plug-In . SVG Version: 6.00 Build 0)  -->
<!DOCTYPE svg PUBLIC "-//W3C//DTD SVG 1.1//EN" "http://www.w3.org/Graphics/SVG/1.1/DTD/svg11.dtd">
<svg version="1.1" id="Calque_1" xmlns="http://www.w3.org/2000/svg" xmlns:xlink="http://www.w3.org/1999/xlink" x="0px" y="0px"
	 width="128px" height="128px" viewBox="84.418 104.443 128 128" enable-background="new 84.418 104.443 128 128"
	 xml:space="preserve">
<g>
	<path id="XMLID_14_" fill="#B9C8D0" d="M343.224,242.57c-18.313-9.258-29.382-21.332-29.382-34.613v69.229
		c0,20.828,27.471,38.939,67.619,47.695v-47.695v-21.533C366.77,252.431,353.79,248.003,343.224,242.57z"/>
	<path id="XMLID_10_" fill="#B9C8D0" d="M351.676,169.517c-3.32-1.408-6.54-2.817-9.459-4.426
		c-17.608-9.258-28.274-21.131-28.274-34.111v68.122c0,1.51,0.201,2.918,0.403,4.428c2.615,13.684,16.904,25.859,38.639,34.613
		c8.452,3.422,18.012,6.34,28.477,8.654V229.49v-50.916C370.493,176.259,360.43,173.14,351.676,169.517z"/>
	<path id="XMLID_3_" fill="#8EA5AF" d="M436.401-0.333c-67.719,0-122.559,23.848-122.559,53.33
		c0,13.182,11.068,25.256,29.281,34.614c3.019,1.509,6.238,3.019,9.66,4.427c8.452,3.422,18.111,6.34,28.576,8.654l23.546-21.231
		l10.868-9.861l18.313-16.603l53.531-48.5C472.021,1.377,454.714-0.333,436.401-0.333z"/>
	<path id="XMLID_4_" fill="#B9C8D0" d="M352.883,92.038c-3.42-1.408-6.641-2.817-9.659-4.427
		c-18.313-9.358-29.382-21.433-29.382-34.614v69.128c0,1.509,0.201,2.918,0.402,4.427c2.516,13.383,16.301,25.357,37.331,34.111
		c3.823,1.61,7.748,3.019,11.974,4.428c5.636,1.811,11.572,3.421,17.811,4.729v-9.559v-8.854v-50.814l0,0
		C370.997,98.378,361.336,95.46,352.883,92.038z"/>
	<path id="XMLID_2_" fill="#81989F" d="M491.14,5.302c-1.208-0.302-2.314-0.503-3.522-0.704l-53.531,48.399l-18.313,16.603
		l-10.868,9.861l-23.444,21.231c16.502,3.622,35.217,5.635,54.939,5.635c7.446,0,14.691-0.302,21.734-0.806
		c23.646-1.811,44.979-6.641,61.884-13.483c3.42-1.408,6.641-2.817,9.659-4.427c18.213-9.358,29.181-21.433,29.181-34.614
		C558.859,32.067,531.289,14.055,491.14,5.302z"/>
	<path id="XMLID_7_" fill="#ABB8C0" d="M529.578,87.611c-3.019,1.509-6.238,3.019-9.66,4.427
		c-16.904,6.843-38.136,11.673-61.883,13.483c-7.044,0.504-14.288,0.806-21.734,0.806c-19.722,0-38.438-2.013-54.94-5.635l0,0
		v50.814v8.854v9.56c16.1,3.521,34.313,5.533,53.531,5.635c0.504,0,0.906,0,1.409,0c27.269,0,52.424-3.926,72.75-10.465
		c4.227-1.409,8.252-2.817,11.975-4.428c20.93-8.754,34.814-20.729,37.33-34.111c0.303-1.408,0.403-2.918,0.403-4.427V52.997
		C558.859,66.178,547.891,78.253,529.578,87.611z"/>
	<g id="XMLID_1_">
		<path id="XMLID_8_" fill="#81989F" d="M558.457,126.552c-2.516,13.383-16.301,25.357-37.332,34.111
			c-3.822,1.61-7.747,3.019-11.973,4.428c-20.326,6.54-45.482,10.465-72.751,10.465c-0.503,0-0.906,0-1.408,0
			c-19.219-0.102-37.432-2.113-53.531-5.635c-6.239-1.41-12.176-2.919-17.811-4.73c-4.227-1.409-8.252-2.817-11.975-4.428
			c-21.029-8.854-34.815-20.829-37.33-34.212c-0.303-1.408-0.403-2.918-0.403-4.427v8.854c0,12.98,10.666,24.854,28.274,34.111
			c2.919,1.509,6.139,3.019,9.459,4.426c8.754,3.623,18.816,6.742,29.785,9.158c15.294,3.32,32.5,5.332,50.613,5.635
			c1.408,0,2.816,0,4.326,0c32.903,0,62.688-5.635,84.724-14.793c3.321-1.408,6.541-2.817,9.459-4.426
			c17.609-9.258,28.275-21.131,28.275-34.111v-8.854C558.859,123.634,558.758,125.143,558.457,126.552z"/>
		<path id="XMLID_19_" fill="#81989F" d="M558.457,203.529c-2.415,12.779-15.094,24.25-34.514,32.904
			c-1.309,0.604-2.717,1.207-4.125,1.709c-3.02,1.209-6.038,2.314-9.359,3.422c-12.477,4.125-26.865,7.244-42.462,9.057
			c-4.024,0.502-8.15,0.805-12.377,1.105c-6.339,0.402-12.779,0.705-19.319,0.705c-9.056,0-17.911-0.402-26.363-1.207
			c-10.062-1.006-19.622-2.416-28.577-4.428c-10.465-2.314-20.023-5.232-28.477-8.654c-21.633-8.754-36.022-20.93-38.537-34.613
			c-0.303-1.408-0.403-2.918-0.403-4.428v8.855c0,13.182,11.069,25.256,29.382,34.613c10.565,5.334,23.546,9.861,38.236,13.082
			c8.15,1.811,16.703,3.119,25.76,4.125c9.357,1.006,19.119,1.51,29.181,1.51c6.44,0,12.779-0.201,19.018-0.604
			c4.126-0.303,8.15-0.605,12.074-1.107c15.799-1.811,30.389-4.932,43.067-9.156c6.942-2.314,13.383-4.932,19.018-7.85
			c0.905-0.502,1.812-1.006,2.717-1.408c16.603-9.057,26.564-20.627,26.564-33.205v-7.346v-1.408c0,0.502-0.101,0.904-0.101,1.408
			C558.758,201.616,558.658,202.622,558.457,203.529z"/>
	</g>
	<path id="XMLID_16_" fill="#ABB8C0" d="M530.583,165.091c-2.918,1.509-6.138,3.019-9.459,4.426
		c-22.035,9.158-51.82,14.793-84.724,14.793c-1.408,0-2.817,0-4.326,0c-18.213-0.303-35.319-2.314-50.613-5.635v50.914v17.307
		c8.955,1.912,18.514,3.422,28.576,4.428c8.453,0.805,17.307,1.207,26.363,1.207c6.541,0,13.081-0.201,19.319-0.703
		c4.227-0.303,8.352-0.705,12.377-1.107c15.596-1.811,29.985-4.93,42.463-9.057c3.22-1.105,6.339-2.213,9.357-3.42
		c1.409-0.604,2.717-1.107,4.126-1.711c19.42-8.654,32.099-20.125,34.514-32.904c0.201-1.006,0.302-2.012,0.402-3.018
		c0-0.504,0.101-0.906,0.101-1.408v-11.674v-56.549C558.859,143.96,548.293,155.833,530.583,165.091z"/>
	<path id="XMLID_5_" fill="#ABB8C0" d="M530.583,242.068c-2.918,1.508-6.138,3.018-9.459,4.426
		c-22.035,9.158-51.82,14.793-84.724,14.793c-1.408,0-2.817,0-4.326,0c-18.213-0.303-35.319-2.314-50.613-5.635v50.914v17.307
		c8.955,1.912,18.514,3.422,28.576,4.428c8.453,0.805,17.307,1.207,26.363,1.207c6.541,0,13.081-0.201,19.319-0.703
		c4.227-0.303,8.352-0.705,12.377-1.107c15.596-1.811,29.985-4.93,42.463-9.057c3.22-1.105,6.339-2.213,9.357-3.42
		c1.409-0.604,2.717-1.107,4.126-1.711c19.42-8.654,32.099-20.125,34.514-32.904c0.201-1.006,0.302-2.012,0.402-3.018
		c0-0.504,0.101-0.906,0.101-1.408v-11.674v-56.549C558.859,220.937,548.293,232.81,530.583,242.068z"/>
</g>
<g>
	<path fill="none" d="M135.776,195.376v-0.003c0-1.063,0-2.175,0-3.333"/>
	<line fill="none" x1="135.776" y1="169.821" x2="135.776" y2="169.818"/>
	<path fill="#6B8A99" d="M135.776,166.484v3.333c-13.646-1.895-23.357-6.769-23.357-12.486v-3.333
		C112.418,159.715,122.13,164.59,135.776,166.484z"/>
	<path fill="#597380" d="M184.418,153.998v3.333c0,7.364-16.118,13.333-36,13.333c-4.449,0-8.708-0.3-12.643-0.848v-3.333
		c3.935,0.548,8.193,0.847,12.643,0.847C168.3,167.331,184.418,161.362,184.418,153.998z"/>
	<path fill="#C9D8E0" d="M135.776,144.265v22.219c-13.646-1.894-23.357-6.769-23.357-12.486v-22.222
		c0,4.639,6.396,8.725,16.099,11.111C130.773,143.443,133.203,143.906,135.776,144.265z"/>
	<path fill="#BCCAD1" d="M184.418,131.776v22.222c0,7.364-16.118,13.333-36,13.333c-4.449,0-8.708-0.299-12.643-0.847v-22.219
		c3.935,0.547,8.193,0.845,12.643,0.845c7.357,0,14.2-0.817,19.902-2.223C178.023,140.501,184.418,136.415,184.418,131.776z"/>
	<path fill="#6B8A99" d="M161.061,119.29l-25.285,24.972v0.003c-2.573-0.358-5.003-0.822-7.259-1.378
		c-9.703-2.386-16.099-6.472-16.099-11.111c0-7.364,16.118-13.333,36-13.333C152.868,118.443,157.125,118.742,161.061,119.29z"/>
	<path fill="#597380" d="M184.418,131.776c0,4.639-6.396,8.725-16.098,11.111c-5.702,1.406-12.545,2.223-19.902,2.223
		c-4.449,0-8.708-0.297-12.643-0.845v-0.003l25.285-24.972C174.706,121.184,184.418,126.059,184.418,131.776z"/>
	<path fill="#6B8A99" d="M135.776,192.04v3.333c-13.646-1.895-23.357-6.77-23.357-12.486v-3.333
		C112.418,185.271,122.13,190.146,135.776,192.04z"/>
	<path fill="#597380" d="M184.418,179.554v3.333c0,7.364-16.118,13.333-36,13.333c-4.449,0-8.708-0.299-12.643-0.844v-3.336
		c3.935,0.547,8.193,0.847,12.643,0.847C168.3,192.887,184.418,186.918,184.418,179.554z"/>
	<path fill="#C9D8E0" d="M135.776,169.821v22.22c-13.646-1.895-23.357-6.77-23.357-12.486v-22.222c0,4.639,6.396,8.725,16.099,11.11
		C130.773,168.998,133.203,169.462,135.776,169.821z"/>
	<path fill="#BCCAD1" d="M184.418,157.332v22.222c0,7.364-16.118,13.333-36,13.333c-4.449,0-8.708-0.3-12.643-0.847v-22.22
		c3.935,0.548,8.193,0.845,12.643,0.845c7.357,0,14.2-0.816,19.902-2.223C178.023,166.056,184.418,161.97,184.418,157.332z"/>
	<path fill="#C9D8E0" d="M135.776,195.376c0,17.461,0,22.22,0,22.22c-13.646-1.895-23.357-6.771-23.357-12.487v-22.222
		c0,4.64,6.396,8.726,16.099,11.111C130.773,194.554,133.203,195.019,135.776,195.376z"/>
	<path fill="#BCCAD1" d="M184.418,182.887v22.222c0,7.365-16.118,13.334-36,13.334c-4.449,0-8.708-0.299-12.643-0.847
		c0,0,0-4.759,0-22.22c3.935,0.547,8.193,0.844,12.643,0.844c7.357,0,14.2-0.816,19.902-2.222
		C178.023,191.613,184.418,187.527,184.418,182.887z"/>
</g>
</svg>
